<svg width="17" height="17" viewBox="0 0 17 17" fill="none" xmlns="http://www.w3.org/2000/svg">
<path d="M8.27694 0.144068L7.51759 0.874011C7.32775 1.0661 7.32775 1.37345 7.51759 1.52712L13.4026 7.48192H0.455611C0.189838 7.48192 0 7.71243 0 7.94294V9.01864C0 9.28757 0.189838 9.47966 0.455611 9.47966H13.4026L7.51759 15.4729C7.32775 15.6266 7.32775 15.9339 7.51759 16.126L8.27694 16.8559C8.42881 17.048 8.73255 17.048 8.92239 16.8559L16.8576 8.82655C17.0475 8.63446 17.0475 8.36554 16.8576 8.17345L8.92239 0.144068C8.73255 -0.0480226 8.42881 -0.0480226 8.27694 0.144068Z" fill="black"/>
</svg>
