<svg width="17" height="17" viewBox="0 0 17 17" fill="none" xmlns="http://www.w3.org/2000/svg">
<path id="&#239;&#129;&#161;" d="M8.72306 16.8559L9.48241 16.126C9.67225 15.9339 9.67225 15.6266 9.48241 15.4729L3.59743 9.51808L16.5444 9.51808C16.8102 9.51808 17 9.28757 17 9.05706V7.98136C17 7.71243 16.8102 7.52034 16.5444 7.52034L3.59743 7.52034L9.48241 1.52712C9.67225 1.37345 9.67225 1.0661 9.48241 0.874011L8.72306 0.144068C8.57119 -0.0480226 8.26745 -0.0480226 8.07761 0.144068L0.142379 8.17345C-0.0474595 8.36554 -0.0474595 8.63446 0.142379 8.82655L8.07761 16.8559C8.26745 17.048 8.57119 17.048 8.72306 16.8559Z" fill="#D24545"/>
</svg>
