<svg width="23" height="19" viewBox="0 0 23 19" fill="none" xmlns="http://www.w3.org/2000/svg">
<path id="&#239;&#130;&#153;" d="M20.6595 4.71566C21.5597 4.02892 22.3699 3.20482 23 2.24337C22.1898 2.60964 21.2446 2.88434 20.2994 2.9759C21.2896 2.38072 22.0098 1.46506 22.3699 0.320482C21.4697 0.869879 20.4344 1.28193 19.3992 1.51084C18.499 0.549398 17.2838 0 15.9335 0C13.3229 0 11.2074 2.15181 11.2074 4.80723C11.2074 5.17349 11.2524 5.53976 11.3425 5.90602C7.42661 5.67711 3.91585 3.75422 1.57534 0.869879C1.17025 1.55663 0.945205 2.38072 0.945205 3.29639C0.945205 4.94458 1.75538 6.40964 3.06067 7.27952C2.2955 7.23374 1.53033 7.0506 0.900196 6.68434V6.73012C0.900196 9.06506 2.52055 10.988 4.68102 11.4458C4.32094 11.5373 3.87084 11.6289 3.46575 11.6289C3.15068 11.6289 2.88063 11.5831 2.56556 11.5373C3.15068 13.4602 4.90607 14.8337 6.97652 14.8795C5.35616 16.1614 3.33072 16.9398 1.12524 16.9398C0.720157 16.9398 0.360078 16.894 0 16.8482C2.07045 18.2217 4.54599 19 7.24658 19C15.9335 19 20.6595 11.7205 20.6595 5.35663C20.6595 5.12771 20.6595 4.94458 20.6595 4.71566Z" fill="black"/>
</svg>
