<svg width="19" height="19" viewBox="0 0 19 19" fill="none" xmlns="http://www.w3.org/2000/svg">
<path id="Vector" d="M9.5 7.23781C9.05262 7.23798 8.61533 7.3708 8.24343 7.61947C7.87152 7.86815 7.58171 8.22151 7.41062 8.63489C7.23953 9.04826 7.19485 9.50309 7.28223 9.94185C7.36961 10.3806 7.58513 10.7836 7.90154 11.0999C8.21795 11.4162 8.62103 11.6316 9.05983 11.7188C9.49863 11.806 9.95343 11.7612 10.3667 11.5899C10.7801 11.4187 11.1333 11.1287 11.3818 10.7567C11.6304 10.3847 11.763 9.94738 11.763 9.5C11.7626 8.90002 11.524 8.32476 11.0997 7.90059C10.6753 7.47642 10.1 7.23804 9.5 7.23781ZM14.789 5.49897C14.6739 5.20712 14.5 4.94204 14.2781 4.72019C14.0563 4.49833 13.7912 4.32443 13.4993 4.20926C12.6087 3.85768 10.4882 3.93656 9.5 3.93656C8.51183 3.93656 6.39342 3.85471 5.50025 4.20926C5.20839 4.32443 4.94332 4.49833 4.72146 4.72019C4.4996 4.94204 4.3257 5.20712 4.21054 5.49897C3.85938 6.3896 3.93783 8.51226 3.93783 9.49958C3.93783 10.4869 3.85938 12.607 4.21223 13.5006C4.3274 13.7925 4.5013 14.0575 4.72316 14.2794C4.94501 14.5012 5.21009 14.6751 5.50194 14.7903C6.39257 15.1419 8.5131 15.063 9.5017 15.063C10.4903 15.063 12.6079 15.1449 13.501 14.7903C13.7929 14.6751 14.058 14.5012 14.2798 14.2794C14.5017 14.0575 14.6756 13.7925 14.7907 13.5006C15.1449 12.61 15.0634 10.4873 15.0634 9.5C15.0634 8.51268 15.1449 6.39299 14.7907 5.4994L14.789 5.49897ZM9.5 12.9777C8.81218 12.9777 8.13981 12.7737 7.56791 12.3916C6.996 12.0095 6.55026 11.4663 6.28704 10.8308C6.02383 10.1954 5.95496 9.49614 6.08914 8.82154C6.22333 8.14694 6.55455 7.52727 7.04091 7.04091C7.52727 6.55455 8.14694 6.22333 8.82154 6.08914C9.49614 5.95496 10.1954 6.02383 10.8309 6.28704C11.4663 6.55026 12.0095 6.996 12.3916 7.56791C12.7737 8.13981 12.9777 8.81218 12.9777 9.5C12.9782 9.95685 12.8887 10.4093 12.7141 10.8315C12.5395 11.2537 12.2834 11.6373 11.9603 11.9603C11.6373 12.2834 11.2537 12.5395 10.8315 12.7141C10.4093 12.8887 9.95685 12.9782 9.5 12.9777ZM13.121 6.68817C12.9605 6.68825 12.8035 6.64072 12.6699 6.55157C12.5364 6.46243 12.4323 6.33568 12.3708 6.18736C12.3093 6.03904 12.2931 5.87582 12.3244 5.71833C12.3557 5.56084 12.433 5.41616 12.5465 5.30259C12.66 5.18902 12.8046 5.11167 12.9621 5.08032C13.1196 5.04896 13.2828 5.06501 13.4311 5.12644C13.5795 5.18786 13.7063 5.29191 13.7955 5.42541C13.8847 5.55891 13.9323 5.71586 13.9323 5.87643C13.9328 5.98305 13.9122 6.08872 13.8717 6.18736C13.8312 6.28601 13.7717 6.37569 13.6964 6.45126C13.6212 6.52683 13.5318 6.58681 13.4334 6.62776C13.3349 6.66871 13.2294 6.68981 13.1227 6.68987L13.121 6.68817ZM16.9643 0H2.03571C1.49581 0 0.978017 0.214476 0.596247 0.596247C0.214476 0.978018 0 1.49581 0 2.03571V16.9643C0 17.5042 0.214476 18.022 0.596247 18.4038C0.978017 18.7855 1.49581 19 2.03571 19H16.9643C17.5042 19 18.022 18.7855 18.4038 18.4038C18.7855 18.022 19 17.5042 19 16.9643V2.03571C19 1.49581 18.7855 0.978018 18.4038 0.596247C18.022 0.214476 17.5042 0 16.9643 0ZM16.2382 12.2991C16.1835 13.3861 15.9354 14.3492 15.1419 15.1406C14.3484 15.932 13.3861 16.1852 12.3004 16.2369C11.1803 16.3001 7.82223 16.3001 6.70217 16.2369C5.61518 16.1822 4.65542 15.9337 3.86065 15.1406C3.06587 14.3475 2.81607 13.384 2.76433 12.2991C2.70114 11.1786 2.70114 7.82011 2.76433 6.70089C2.81904 5.61391 3.06417 4.65076 3.86065 3.85938C4.65712 3.06799 5.61942 2.81777 6.70217 2.76603C7.82223 2.70284 11.1803 2.70284 12.3004 2.76603C13.3874 2.82074 14.3501 3.06926 15.1419 3.86234C15.9337 4.65542 16.1865 5.619 16.2382 6.70598C16.3014 7.82223 16.3014 11.1778 16.2382 12.2991Z" fill="white"/>
</svg>
